<svg width="37" height="29" viewBox="0 0 37 29" fill="none" xmlns="http://www.w3.org/2000/svg">
<path d="M18.7665 5.48676C18.8462 5.49573 18.9236 5.50469 19.0011 5.51814C19.0409 5.52486 19.0807 5.53159 19.1205 5.53831C19.1604 5.54504 19.198 5.55176 19.2378 5.56072C19.2666 5.56745 19.2953 5.57193 19.3241 5.57865C19.4104 5.59659 19.4967 5.619 19.5807 5.64141C19.6184 5.65038 19.656 5.66158 19.6936 5.67279C19.7312 5.684 19.7688 5.6952 19.8064 5.70641C19.844 5.71762 19.8794 5.73106 19.917 5.74227C19.9547 5.75572 19.9901 5.76693 20.0277 5.78037C20.0631 5.79382 20.0985 5.80727 20.1339 5.82072C20.1715 5.83641 20.2069 5.84985 20.2445 5.86554C20.2799 5.87899 20.3153 5.89468 20.3507 5.91037C20.4215 5.94175 20.4901 5.97537 20.5609 6.00899C20.6118 6.03588 20.6649 6.06054 20.7135 6.08968C20.8662 6.17036 21.0144 6.26002 21.156 6.35639C21.2844 6.44156 21.4061 6.53122 21.5255 6.62759C21.5676 6.66121 21.6096 6.69708 21.6539 6.73294C21.7158 6.78673 21.7778 6.84276 21.8375 6.89879C21.9061 6.96155 21.9725 7.02207 22.0366 7.08931C22.0477 7.10051 22.061 7.11172 22.072 7.12293C22.0897 7.14086 22.1074 7.15879 22.1229 7.17896C22.1561 7.21258 22.1871 7.2462 22.2158 7.28206C22.2468 7.31568 22.2756 7.35154 22.3043 7.38516C22.3641 7.45688 22.4216 7.52861 22.4769 7.60257C22.5013 7.63395 22.5256 7.66533 22.5455 7.69671C22.5831 7.74826 22.6185 7.79981 22.6561 7.8536C22.6783 7.88722 22.7026 7.92308 22.7247 7.9567C22.7247 7.95894 22.7269 7.95894 22.7269 7.96118C22.7491 7.9948 22.7712 8.02842 22.7889 8.06204C22.811 8.0979 22.8331 8.13152 22.853 8.16738V8.16963C22.8951 8.24135 22.9349 8.31307 22.9725 8.38703C22.9924 8.4229 23.0101 8.461 23.0278 8.49686C23.0477 8.53496 23.0654 8.57306 23.0809 8.61117C23.0942 8.6403 23.1075 8.6672 23.1185 8.69634C23.123 8.7053 23.1274 8.71427 23.1318 8.72547C23.1495 8.76358 23.1672 8.80168 23.1805 8.84202C23.1982 8.88013 23.2137 8.91823 23.227 8.95857V8.96081C23.2734 9.0796 23.3132 9.19839 23.3509 9.31718C23.3553 9.33063 23.3597 9.34184 23.3619 9.35529C23.3796 9.41356 23.3951 9.47183 23.4106 9.53011C23.5345 9.99406 23.5987 10.4804 23.5987 10.9847C23.5987 11.619 23.4925 12.2287 23.3 12.7957C23.207 13.0736 23.092 13.3381 22.957 13.5936C22.9371 13.6295 22.9172 13.6654 22.8973 13.7012C21.9304 14.2884 20.8463 14.7008 19.6958 14.8936V14.8914C18.959 13.8469 18.4546 12.6814 18.1869 11.4733C17.9191 12.6814 17.4191 13.8469 16.6823 14.8936C15.5274 14.7008 14.4433 14.2929 13.4764 13.7057C13.4565 13.6698 13.4366 13.634 13.4189 13.5981C13.399 13.5623 13.3791 13.5264 13.3636 13.4905C13.3437 13.4547 13.326 13.4166 13.3083 13.3785C13.2906 13.3404 13.2729 13.3023 13.2574 13.2642C13.2397 13.2261 13.2242 13.1879 13.2087 13.1498C13.1777 13.0736 13.1468 12.9974 13.1202 12.919C13.1047 12.8786 13.0914 12.8405 13.0782 12.8002C13.0605 12.7509 13.045 12.6993 13.0295 12.6478C13.0273 12.6433 13.0251 12.6388 13.0251 12.6343C13.0184 12.6187 13.014 12.603 13.0096 12.585C12.9985 12.5492 12.9874 12.5133 12.9786 12.4752C12.9675 12.4393 12.9587 12.4012 12.9498 12.3654C12.9277 12.2825 12.91 12.1995 12.8923 12.1144C12.8857 12.0852 12.879 12.0561 12.8746 12.0292C12.8658 11.9911 12.8591 11.953 12.8547 11.9149C12.8481 11.8768 12.8414 11.8387 12.837 11.8006C12.8304 11.7625 12.8259 11.7244 12.8215 11.684C12.8171 11.6549 12.8127 11.6257 12.8104 11.5989C12.8104 11.5944 12.8082 11.5899 12.8082 11.5854C12.806 11.5809 12.806 11.5787 12.806 11.5764C12.806 11.572 12.8038 11.5652 12.8038 11.5607C12.795 11.4845 12.7883 11.4106 12.7861 11.3344C12.7839 11.294 12.7817 11.2559 12.7795 11.2156V11.2044C12.7773 11.1304 12.775 11.0542 12.775 10.978C12.775 10.9623 12.775 10.9466 12.775 10.9309C12.775 10.8032 12.7795 10.6754 12.7905 10.5499C12.795 10.5028 12.7994 10.4558 12.8038 10.4087C12.8149 10.3011 12.8281 10.1935 12.8458 10.086C12.8547 10.0344 12.8635 9.9851 12.8724 9.93579C12.8746 9.93131 12.8746 9.92906 12.8746 9.92682C12.8835 9.87303 12.8945 9.82148 12.9078 9.76769C12.9299 9.66235 12.9565 9.55925 12.9852 9.45614C13.014 9.35304 13.045 9.25218 13.0804 9.15133C13.0959 9.10426 13.1136 9.05719 13.1291 9.01012C13.1357 8.99219 13.1423 8.97426 13.149 8.95857C13.1667 8.90926 13.1866 8.86219 13.2065 8.81289C13.2264 8.76358 13.2463 8.71651 13.2684 8.66944C13.2817 8.64254 13.2928 8.61565 13.3061 8.58875C13.3193 8.55962 13.3348 8.52824 13.3481 8.4991C13.3746 8.44307 13.4034 8.38927 13.4322 8.33324C13.4609 8.27945 13.4919 8.22342 13.5207 8.17187C13.5428 8.13601 13.5627 8.10014 13.5848 8.06652C13.6291 8.00153 13.6755 7.93204 13.7198 7.86481C13.7419 7.83119 13.764 7.79756 13.7884 7.76395C13.8061 7.73929 13.8238 7.71464 13.8415 7.68998C13.8702 7.6474 13.9012 7.60705 13.9344 7.56447V7.56223C13.9853 7.49723 14.0362 7.43447 14.0893 7.37171C14.1955 7.2462 14.3083 7.12741 14.4234 7.0131C14.4411 6.99517 14.4588 6.97724 14.4787 6.95931C14.4964 6.94138 14.5163 6.92345 14.534 6.90776C14.5716 6.8719 14.6092 6.83828 14.6468 6.80466C14.6844 6.77104 14.7198 6.73966 14.7597 6.70828C14.7995 6.67466 14.8393 6.64104 14.8814 6.60742C14.9035 6.59173 14.9234 6.57604 14.9433 6.56035C14.9455 6.55811 14.9477 6.55811 14.9477 6.55587C14.9544 6.55139 14.9588 6.54691 14.9654 6.54242C14.9676 6.54018 14.9699 6.53794 14.9743 6.5357C15.0097 6.5088 15.0429 6.48191 15.0805 6.45725C15.1358 6.41915 15.1911 6.38105 15.2464 6.34295C15.284 6.31829 15.3194 6.29588 15.3571 6.27122C15.3681 6.2645 15.3792 6.25778 15.388 6.25105C15.4566 6.20847 15.5274 6.16812 15.5982 6.12778C15.6336 6.10761 15.669 6.08744 15.7088 6.06726C15.7531 6.04261 15.7996 6.0202 15.846 5.99778C15.8925 5.97537 15.9367 5.95296 15.9854 5.93278C16.0297 5.91261 16.0717 5.89244 16.1159 5.87451C16.1602 5.85434 16.2022 5.83865 16.2487 5.82072C16.2553 5.81624 16.262 5.81399 16.2686 5.81175C16.2686 5.81175 16.2686 5.81175 16.2708 5.81175C16.3195 5.79158 16.3704 5.77365 16.4213 5.75572C16.4655 5.74003 16.5076 5.72434 16.5518 5.71089C16.554 5.70865 16.5562 5.70865 16.5584 5.70865C16.6049 5.69296 16.6514 5.67951 16.7 5.66607C16.6735 5.67279 16.6469 5.68176 16.6182 5.68848C16.658 5.67727 16.6978 5.66607 16.7399 5.65486C16.8195 5.63021 16.9014 5.61003 16.9832 5.5921C17.0651 5.57193 17.147 5.554 17.2288 5.54055C17.2687 5.53159 17.3085 5.52486 17.3483 5.52038C17.4324 5.50693 17.5187 5.49573 17.6072 5.48452C17.5718 5.40383 17.5342 5.32314 17.4966 5.24246V5.24022C17.0563 4.31455 16.4611 3.44716 15.7088 2.67838C14.2729 1.226 12.4963 0.340681 10.6466 0.0336199C9.55584 1.58686 8.91421 3.49198 8.91421 5.54952C8.91421 6.64104 9.09564 7.68998 9.42973 8.6672V8.66944C9.44079 8.70306 9.45407 8.73892 9.46734 8.77254C9.48504 8.82185 9.50274 8.8734 9.52044 8.92271V8.92495C9.58461 9.09529 9.65098 9.26115 9.72399 9.42253C9.75497 9.49201 9.78594 9.55925 9.81692 9.62649C9.83462 9.66235 9.85011 9.69821 9.86781 9.73183C9.87444 9.74752 9.88329 9.76097 9.88993 9.77441C9.89657 9.78786 9.90321 9.80131 9.91206 9.81476C9.92976 9.85062 9.94524 9.88424 9.96294 9.91786C9.98065 9.95148 9.99834 9.98734 10.016 10.021C10.0426 10.0703 10.0691 10.1196 10.0935 10.1666C10.12 10.216 10.1488 10.263 10.1753 10.3123C10.2041 10.3594 10.2307 10.4087 10.2594 10.4558C10.286 10.5028 10.3147 10.5499 10.3435 10.597L10.3413 10.5947C10.3302 10.588 10.3192 10.579 10.3081 10.5746C10.2528 10.5387 10.1953 10.5028 10.1377 10.4692C10.1222 10.4603 10.1068 10.4513 10.0935 10.4423C10.0271 10.402 9.96073 10.3639 9.89436 10.3258C9.88993 10.3235 9.88551 10.3213 9.88329 10.3191C9.81028 10.2787 9.73727 10.2384 9.66204 10.198H9.65983C9.58239 10.1577 9.50495 10.1173 9.4253 10.0792C9.36335 10.0479 9.29919 10.0165 9.23503 9.98958C9.21069 9.97837 9.18857 9.96717 9.16644 9.9582C9.16201 9.95596 9.1598 9.95372 9.15538 9.95372C9.08458 9.92234 9.01378 9.89096 8.94298 9.86182C8.77925 9.79234 8.61552 9.72959 8.44737 9.66907H8.44516C7.49599 9.33063 6.47381 9.14908 5.40959 9.14908C3.39178 9.14908 1.52221 9.80803 0 10.9287C0.305327 12.8136 1.16821 14.6246 2.59085 16.0793C2.96919 16.4648 3.37187 16.8122 3.79225 17.117C4.21484 17.4218 4.65513 17.6885 5.1109 17.9127C5.18834 17.9508 5.26799 17.9889 5.34764 18.027C5.35428 17.962 5.36313 17.8992 5.37198 17.8365C5.37198 17.832 5.37198 17.8297 5.37419 17.8275C5.38304 17.7647 5.39189 17.702 5.40296 17.6392L5.42729 17.5115C5.44499 17.4263 5.46269 17.3411 5.48482 17.2582C5.49367 17.2223 5.50252 17.1842 5.51358 17.1461C5.52243 17.117 5.53128 17.0856 5.53792 17.0565C5.54898 17.0251 5.55783 16.9937 5.56668 16.9623C5.57774 16.9242 5.59102 16.8861 5.60208 16.848C5.61536 16.8099 5.62642 16.7718 5.6397 16.736C5.65297 16.7001 5.66625 16.662 5.67952 16.6284C5.69501 16.5903 5.70828 16.5522 5.72377 16.5163C5.73705 16.4805 5.75253 16.4424 5.76802 16.4087C5.799 16.337 5.82997 16.2653 5.86537 16.1958C5.93175 16.0546 6.00476 15.9179 6.08441 15.7834C6.12424 15.7162 6.16406 15.6512 6.2061 15.5862C6.2238 15.5593 6.2415 15.5324 6.25699 15.5055C6.28354 15.4674 6.30787 15.4293 6.33442 15.3934C6.36982 15.3441 6.40522 15.2926 6.44505 15.2432C6.45832 15.2253 6.4716 15.2096 6.48487 15.1939C6.50921 15.1603 6.53576 15.1289 6.5601 15.0976C6.58001 15.0751 6.59771 15.0527 6.61541 15.0303C6.66409 14.9698 6.71498 14.9138 6.76808 14.8555C6.79463 14.8264 6.81896 14.7995 6.84551 14.7703C6.87207 14.7434 6.89862 14.7165 6.92517 14.6874C6.94065 14.6717 6.95393 14.6583 6.96942 14.6448C6.98269 14.6314 6.99818 14.6157 7.01367 14.6022C7.01809 14.6 7.0203 14.5955 7.02473 14.591C7.05792 14.5596 7.0911 14.526 7.1265 14.4969C7.1442 14.4812 7.15969 14.4655 7.17739 14.4498C7.19509 14.4341 7.21279 14.4184 7.22828 14.405C7.26368 14.3758 7.29687 14.3445 7.33448 14.3153C7.36988 14.2862 7.40528 14.2571 7.44289 14.2302C7.47829 14.201 7.51591 14.1719 7.55352 14.1472C7.58449 14.1248 7.61326 14.1024 7.64423 14.08C7.65529 14.071 7.66636 14.0643 7.67742 14.0553C7.71503 14.0307 7.75043 14.0038 7.78804 13.9791C7.86327 13.9298 7.9385 13.8828 8.01593 13.8357C8.05355 13.8133 8.09337 13.7909 8.1332 13.7685C8.17302 13.746 8.21285 13.7236 8.25488 13.7012C8.41861 13.616 8.58676 13.5376 8.75934 13.4681C8.81686 13.4435 8.87439 13.4233 8.93191 13.4009C8.98944 13.3785 9.04918 13.3583 9.10891 13.3404C9.18857 13.3157 9.26822 13.2933 9.34787 13.2686C9.43858 13.244 9.52929 13.2216 9.62222 13.2014C9.66868 13.1924 9.71514 13.1835 9.76161 13.1745C9.80807 13.1655 9.85453 13.1566 9.90099 13.1498C9.94746 13.1431 9.99613 13.1364 10.0426 13.1297C10.0891 13.123 10.1377 13.1185 10.1864 13.1117C10.2815 13.1028 10.3789 13.0938 10.474 13.0893C10.5183 13.0871 10.5603 13.0848 10.6046 13.0848C10.6267 13.0848 10.6488 13.0848 10.6709 13.0826H10.7351C10.89 13.0826 11.0449 13.0893 11.1953 13.1028C11.2705 13.1095 11.348 13.1162 11.4232 13.1274C11.4785 13.1364 11.5338 13.1431 11.5869 13.1521C11.6422 13.1611 11.6953 13.17 11.7507 13.1812L11.7684 13.1857C11.7905 13.1902 11.8126 13.1947 11.8347 13.1992C11.8569 13.2036 11.8768 13.2081 11.8967 13.2126C11.8989 13.2148 11.8989 13.2148 11.9011 13.2148C11.9631 13.2283 12.025 13.244 12.0847 13.2597C12.2286 13.2978 12.3702 13.3404 12.5095 13.3897C12.5759 13.4121 12.6401 13.4367 12.7042 13.4636C12.7529 13.4838 12.8038 13.504 12.8525 13.5264C12.8901 13.5421 12.9277 13.56 12.9653 13.5757C13.0029 13.5914 13.0383 13.6093 13.076 13.6272C13.1136 13.6452 13.149 13.6631 13.1844 13.681C13.2198 13.699 13.2574 13.7169 13.2928 13.7393C13.3282 13.7572 13.3636 13.7774 13.399 13.7976C13.399 13.7998 13.4012 13.7998 13.4012 13.7998C13.9742 14.7905 14.3791 15.8955 14.5672 17.0744C13.5428 17.8275 12.4056 18.343 11.2219 18.6164C12.4056 18.8876 13.5472 19.4009 14.5694 20.154C14.3835 21.3329 13.9809 22.4401 13.4078 23.4308C13.4831 23.3882 13.5561 23.3434 13.6291 23.2963C13.5848 23.3703 13.5406 23.4465 13.4985 23.5205C14.4654 22.9355 15.5473 22.5231 16.7023 22.3281C17.439 23.3725 17.9413 24.538 18.2112 25.7483C18.4767 24.5403 18.9789 23.3725 19.7135 22.3258C20.8662 22.5186 21.9503 22.9265 22.9194 23.5137C22.8774 23.4375 22.8353 23.3636 22.7889 23.2896C22.8597 23.3344 22.9327 23.3792 23.0057 23.4218C23.0522 23.5003 23.0964 23.5765 23.1451 23.6549C23.5146 24.2534 23.9505 24.807 24.4372 25.3045C24.9262 25.8021 25.4682 26.2437 26.0568 26.6224C26.424 26.86 26.8112 27.0707 27.2117 27.2545C27.3334 27.3083 27.4529 27.3621 27.5768 27.4114C27.6608 27.445 27.7449 27.4786 27.8312 27.5078C27.8334 27.51 27.8378 27.51 27.84 27.5122C27.8777 27.5257 27.9131 27.5414 27.9507 27.5548C28.8998 27.891 29.9242 28.0726 30.9885 28.0726C33.0063 28.0726 34.8736 27.4159 36.3958 26.293C36.3472 25.9859 36.2808 25.6788 36.2011 25.3785C36.1768 25.2889 36.1525 25.1992 36.1259 25.1096C36.1171 25.0782 36.1082 25.0468 36.0971 25.0154C36.0839 24.9773 36.0728 24.937 36.0595 24.8966C35.8715 24.3049 35.6237 23.7267 35.3161 23.173C35.2675 23.0856 35.2188 22.9982 35.1679 22.9131V22.9108C35.0418 22.7001 34.909 22.4939 34.7652 22.2922C34.4798 21.8888 34.1568 21.501 33.8028 21.1402C33.6612 20.9945 33.5174 20.8555 33.3691 20.721C33.024 20.4095 32.6589 20.1293 32.2806 19.8783C32.1721 19.8066 32.0637 19.7393 31.9553 19.6721H31.9531C31.7894 19.5735 31.6212 19.4793 31.4531 19.3897C31.4509 19.3897 31.4509 19.3897 31.4509 19.3897C31.3956 19.3583 31.338 19.3292 31.2827 19.3023C31.2562 19.2888 31.2296 19.2776 31.2031 19.2642C31.1964 19.2597 31.1898 19.2575 31.1832 19.2552C31.1367 19.2328 31.0924 19.2126 31.0482 19.1902C30.8712 20.8824 29.9486 22.346 28.6233 23.2313C28.5547 23.2761 28.4861 23.321 28.4153 23.3636C28.3799 23.386 28.3445 23.4061 28.3091 23.4263C28.2383 23.4667 28.1653 23.507 28.0923 23.5451C28.0547 23.563 28.0193 23.581 27.9816 23.5989C27.9086 23.6348 27.8334 23.6706 27.7582 23.702C27.7184 23.7199 27.6785 23.7356 27.6365 23.7513C27.5436 23.7872 27.4506 23.823 27.3555 23.8544C27.3245 23.8656 27.2936 23.8746 27.2648 23.8835C27.1807 23.9104 27.0944 23.9351 27.0081 23.9575C26.9639 23.971 26.9219 23.9799 26.8776 23.9889C26.8334 24.0001 26.7913 24.0091 26.7471 24.018C26.6608 24.036 26.5723 24.0516 26.4838 24.0651C26.4395 24.0718 26.3953 24.0785 26.3488 24.083C26.3046 24.0897 26.2603 24.0942 26.2139 24.0987C26.0324 24.1166 25.8488 24.1256 25.6629 24.1256H25.601C25.5789 24.1256 25.5567 24.1256 25.5368 24.1234H25.5346H25.5324C25.497 24.1234 25.4594 24.1211 25.424 24.1189C25.3753 24.1166 25.3244 24.1122 25.2757 24.1099C25.2337 24.1054 25.1895 24.1032 25.1474 24.0987C25.101 24.0942 25.0567 24.0897 25.0102 24.083C25.0058 24.083 25.0036 24.0808 25.0014 24.0808C24.9859 24.0785 24.9726 24.0763 24.9571 24.0741C24.9085 24.0673 24.8598 24.0606 24.8133 24.0516C24.758 24.0427 24.7027 24.0337 24.6474 24.0225C24.6142 24.0158 24.581 24.0091 24.5456 24.0023C24.5346 24.0001 24.5257 23.9979 24.5169 23.9956C24.4947 23.9911 24.4726 23.9866 24.4527 23.9799C24.4438 23.9777 24.435 23.9754 24.4261 23.9732C24.3907 23.9642 24.3553 23.9553 24.3199 23.9463C24.2248 23.9216 24.1275 23.8948 24.0345 23.8611C23.9881 23.8477 23.9438 23.832 23.8974 23.8163C23.7425 23.7603 23.5898 23.6998 23.4416 23.6303C23.2933 23.563 23.1517 23.4891 23.0101 23.4061C22.4349 22.4177 22.0322 21.3105 21.8441 20.1293C22.8663 19.3762 24.0058 18.863 25.1872 18.5873C24.0036 18.3161 22.8641 17.8006 21.8397 17.052C22.0278 15.8731 22.4282 14.7636 22.9991 13.7752C23.0699 13.7348 23.1407 13.6945 23.2137 13.6564C23.2491 13.6385 23.2845 13.6205 23.3221 13.6026C23.4327 13.5488 23.5434 13.4973 23.6562 13.4524C23.7314 13.421 23.8088 13.3919 23.8863 13.365C23.9549 13.3404 24.0257 13.3179 24.0965 13.2955C24.1673 13.2731 24.2403 13.2529 24.3111 13.2328C24.3841 13.2148 24.4571 13.1969 24.5301 13.1812C24.6031 13.1655 24.6784 13.1521 24.7514 13.1386C24.8642 13.1185 24.9771 13.1028 25.0899 13.0916C25.1651 13.0826 25.2426 13.0759 25.3178 13.0714C25.435 13.0624 25.5501 13.0602 25.6674 13.0602C27.1475 13.0602 28.4905 13.6676 29.4685 14.656C29.4972 14.6829 29.526 14.7143 29.5547 14.7434C29.6432 14.8376 29.7317 14.9362 29.8136 15.037C29.9486 15.2007 30.0725 15.3732 30.1897 15.5525C30.2273 15.6131 30.265 15.6736 30.3026 15.7341C30.3734 15.8529 30.4397 15.9739 30.4995 16.0972C30.5349 16.1667 30.5659 16.2361 30.599 16.3056C30.6278 16.3706 30.6566 16.4379 30.6831 16.5051C30.703 16.5544 30.7207 16.6015 30.7384 16.6508C30.7938 16.7987 30.8424 16.9489 30.8823 17.1035C30.9376 17.3075 30.9818 17.5159 31.015 17.7311C31.0283 17.8163 31.0393 17.9037 31.0482 17.9889C31.1278 17.953 31.2053 17.9127 31.2849 17.8746C32.1898 17.4241 33.0395 16.8167 33.7895 16.0479C35.2166 14.5888 36.0817 12.7711 36.3826 10.8794C34.8626 9.76545 32.9996 9.11098 30.9862 9.11098C29.9176 9.11098 28.891 9.29477 27.9352 9.63545C27.8511 9.66459 27.767 9.69821 27.6852 9.72735C27.5214 9.79234 27.3577 9.86182 27.1984 9.93355C27.1188 9.96941 27.0391 10.0075 26.9595 10.0479C26.8024 10.1263 26.6453 10.2092 26.4926 10.2944C26.34 10.3818 26.1895 10.4737 26.0435 10.5678C26.4152 9.96493 26.7205 9.31718 26.9528 8.63358V8.63134C27.2825 7.6586 27.4617 6.61415 27.4617 5.52935C27.4617 3.46509 26.8157 1.55772 25.7205 0C23.8752 0.311544 22.103 1.19463 20.6804 2.64924C19.9237 3.42026 19.3263 4.29438 18.886 5.22453C18.8395 5.32539 18.8019 5.40607 18.7665 5.48676ZM10.5891 12.2914H10.578C10.5271 12.2937 10.4785 12.2937 10.432 12.2959C10.3346 12.3004 10.2307 12.3071 10.1068 12.3206H10.0979H10.0891L9.94303 12.3385H9.93418L9.92533 12.3407L9.85453 12.3519L9.78373 12.3631C9.74169 12.3699 9.69966 12.3766 9.65983 12.3833L9.62443 12.39L9.61779 12.3923L9.61116 12.3945L9.54257 12.408L9.47177 12.4214L9.46513 12.4237L9.45849 12.4259C9.36557 12.4461 9.266 12.4707 9.14653 12.5021L9.13989 12.5043L9.13325 12.5066C9.05581 12.529 8.9651 12.5537 8.87439 12.5828C8.80801 12.603 8.73721 12.6276 8.6642 12.6545C8.58676 12.6814 8.5226 12.7061 8.46286 12.733C8.27922 12.8069 8.08895 12.8943 7.89646 12.9952C7.84336 13.0221 7.79468 13.049 7.75264 13.0736C7.70618 13.0983 7.66193 13.1252 7.61989 13.1498C7.52254 13.2081 7.43183 13.2664 7.36545 13.309C7.33448 13.3292 7.3035 13.3493 7.27253 13.3717L7.23934 13.3942L7.2327 13.3986L7.22607 13.4031L7.22828 13.4009C7.21722 13.4076 7.19952 13.421 7.17739 13.4367C7.14863 13.4569 7.11987 13.4771 7.09332 13.4995C7.04243 13.5354 6.99818 13.569 6.95835 13.6026C6.91853 13.634 6.8787 13.6654 6.83888 13.6967C6.80126 13.7281 6.76365 13.7595 6.72383 13.7931L6.7194 13.7976L6.71498 13.8021L6.68621 13.829L6.67073 13.8424C6.64418 13.8648 6.62205 13.885 6.60435 13.9029C6.57559 13.9276 6.54904 13.9522 6.52691 13.9747L6.51585 13.9836L6.46054 14.0397L6.44726 14.0509C6.4362 14.0621 6.42514 14.071 6.41629 14.0822L6.40522 14.0934C6.39416 14.1047 6.3831 14.1159 6.37204 14.1271C6.34106 14.1584 6.31009 14.1898 6.28132 14.2212C6.25035 14.2526 6.2238 14.284 6.19504 14.3153C6.13087 14.3848 6.07335 14.4521 6.02025 14.5171L5.99148 14.5529L5.96493 14.5843L5.96051 14.5888L5.95608 14.5933C5.92511 14.6314 5.89635 14.6672 5.86758 14.7076L5.83882 14.7457L5.8344 14.7502L5.82997 14.7546L5.82555 14.7591C5.78351 14.8129 5.7459 14.8689 5.70607 14.925C5.68173 14.9586 5.65739 14.9922 5.63527 15.0281L5.61757 15.055L5.61093 15.0639L5.60429 15.0729L5.57996 15.1088L5.55562 15.1469C5.50473 15.2253 5.45827 15.3015 5.41402 15.3755C5.32552 15.5279 5.24144 15.687 5.164 15.8484C5.12197 15.9403 5.08657 16.0165 5.05559 16.0882C5.0401 16.1263 5.02019 16.1689 5.00249 16.2182C4.987 16.2563 4.97152 16.2967 4.95603 16.337L4.95382 16.3415V16.3437C4.94497 16.3706 4.9339 16.3953 4.92505 16.4222L4.91178 16.4603C4.89629 16.5051 4.8808 16.5522 4.8631 16.5992C4.84983 16.6396 4.83655 16.6822 4.82328 16.7248C4.81664 16.7449 4.81 16.7629 4.80558 16.783L4.79673 16.8144L4.7923 16.8256C4.60866 16.7136 4.42724 16.5925 4.25245 16.4648C3.86747 16.1846 3.49577 15.8663 3.15283 15.5144C2.00675 14.3445 1.22573 12.8943 0.873943 11.2963C2.23021 10.4154 3.79003 9.95148 5.41623 9.95148C6.36982 9.95148 7.3035 10.1106 8.19293 10.4266L8.25267 10.4468C8.38321 10.4939 8.51375 10.5454 8.6465 10.6015C8.70845 10.6261 8.76819 10.653 8.83014 10.6821L8.86775 10.7001L8.88545 10.7068C8.88988 10.709 8.89651 10.7113 8.90094 10.7135L8.912 10.718L8.92306 10.7225C8.97838 10.7471 9.03811 10.7763 9.089 10.8009C9.16201 10.8368 9.23503 10.8749 9.30804 10.9108L9.33238 10.9242C9.38769 10.9533 9.44079 10.9825 9.49389 11.0139C9.50717 11.0206 9.52044 11.0296 9.53372 11.0363L9.54699 11.043C9.59567 11.0699 9.64213 11.099 9.69081 11.1282C9.69966 11.1327 9.70851 11.1394 9.71736 11.1439L9.72842 11.1506L9.73506 11.1551L9.74169 11.1596C9.75497 11.1685 9.77046 11.1775 9.78373 11.1842C10.0315 11.5697 10.3059 11.9373 10.6024 12.2869H10.5891V12.2914ZM12.6467 8.15169C12.629 8.18756 12.6113 8.22342 12.5958 8.25928L12.5781 8.29738L12.5626 8.33324C12.5361 8.38927 12.5118 8.44531 12.4852 8.50806C12.4631 8.55737 12.441 8.61565 12.4166 8.67616C12.41 8.69634 12.4011 8.71651 12.3945 8.73668L12.3923 8.7434V8.74789C12.3746 8.7972 12.3569 8.84426 12.3414 8.89357C12.3016 9.00564 12.2662 9.11995 12.2308 9.24546C12.1976 9.35977 12.1688 9.47856 12.1423 9.59735C12.1312 9.6489 12.1201 9.69373 12.1113 9.73855L12.1091 9.74303L12.098 9.79907C12.0936 9.83045 12.087 9.85958 12.0825 9.89096L12.0715 9.95372V9.95596V9.9582C12.0516 10.0815 12.0339 10.207 12.0228 10.3437C12.0184 10.3953 12.0139 10.4446 12.0095 10.4961C12.0007 10.6172 11.994 10.7382 11.9918 10.8615C11.6511 10.5589 11.2905 10.2787 10.9121 10.0254L10.8834 9.97613L10.8435 9.90889L10.8148 9.85734C10.8015 9.83269 10.786 9.80803 10.7727 9.78114L10.7484 9.73631C10.7329 9.70493 10.7152 9.67579 10.6997 9.64666L10.6909 9.63097L10.6444 9.54356C10.6311 9.5189 10.6201 9.49425 10.6068 9.46735L10.5935 9.44046L10.5824 9.42253C10.5758 9.41132 10.5714 9.39787 10.5647 9.38442V9.38218L10.5404 9.32839L10.5161 9.27684C10.4873 9.21408 10.4585 9.15357 10.432 9.09081C10.3811 8.97202 10.3302 8.85323 10.2815 8.72547L10.2461 8.6291C10.2307 8.58875 10.2174 8.54841 10.2041 8.50806L10.1975 8.48789L10.1908 8.46772C10.1886 8.46324 10.1864 8.45876 10.1864 8.45427L10.1665 8.39824C9.85453 7.48378 9.69523 6.52225 9.69523 5.54503C9.69523 3.89094 10.1466 2.2996 11.005 0.91446C12.5737 1.27083 13.9964 2.07098 15.1469 3.24544C15.6403 3.74973 16.0673 4.30782 16.4213 4.91074L16.4014 4.91746L16.3814 4.92195L16.3615 4.92867L16.3261 4.93988L16.2708 4.95333L16.2487 4.96453C16.2177 4.97574 16.1867 4.9847 16.1558 4.99591C16.1115 5.0116 16.0628 5.02953 16.012 5.0497H16.0097C15.981 5.05867 15.9544 5.06987 15.9345 5.07884C15.8925 5.09453 15.8482 5.11246 15.8018 5.13263C15.7531 5.1528 15.7044 5.17522 15.658 5.19763C15.6071 5.22004 15.5562 5.2447 15.5009 5.27159C15.4411 5.30073 15.3858 5.32987 15.3438 5.35228C15.3128 5.36797 15.284 5.38366 15.2531 5.40159L15.2243 5.41728L15.2199 5.41952L15.2155 5.42176C15.1292 5.46883 15.0495 5.5159 14.9743 5.56297L14.961 5.57193L14.9477 5.5809C14.9433 5.58314 14.9389 5.58762 14.9323 5.58986C14.8924 5.61452 14.8526 5.64141 14.8106 5.66831C14.753 5.70641 14.6933 5.74675 14.6291 5.79158C14.6004 5.81175 14.5694 5.83417 14.5406 5.85658C14.534 5.86106 14.5274 5.86779 14.5185 5.87227C14.5141 5.87451 14.5097 5.87899 14.5074 5.88123L14.4566 5.91261L14.4433 5.92606L14.4389 5.9283L14.4234 5.94399L14.4123 5.95296L14.4035 5.95968L14.3946 5.9664C14.3504 6.00226 14.3061 6.03813 14.2619 6.07623C14.222 6.10985 14.1778 6.14571 14.1313 6.18829C14.0804 6.23312 14.0362 6.27347 13.9941 6.31381L13.9676 6.33846L13.9455 6.36088C13.9145 6.39001 13.8902 6.41467 13.8702 6.43484C13.7397 6.56484 13.6136 6.70156 13.4963 6.83828L13.4941 6.84052L13.4919 6.84276C13.4388 6.90776 13.3835 6.975 13.3215 7.05345L13.149 7.27534V7.28878C13.1158 7.33361 13.0892 7.37395 13.0671 7.40757C13.0118 7.48826 12.9653 7.56447 12.9189 7.63843C12.9012 7.66533 12.8857 7.69446 12.868 7.72136L12.8503 7.7505L12.8458 7.75722L12.8414 7.76395C12.806 7.82446 12.7728 7.88722 12.7396 7.94998C12.7153 8.01946 12.6799 8.08445 12.6467 8.15169ZM25.1961 24.9235H25.2049H25.2094H25.2138C25.2669 24.928 25.32 24.9302 25.3731 24.9325C25.4107 24.9347 25.4461 24.937 25.4837 24.937C25.497 24.937 25.5125 24.9392 25.5258 24.9392H25.5435C25.5545 24.9392 25.5656 24.9392 25.5766 24.9392C25.6032 24.9392 25.6297 24.9415 25.6585 24.9415C25.8731 24.9415 26.0855 24.9302 26.2847 24.9078C26.3333 24.9033 26.3864 24.8966 26.4462 24.8877C26.4948 24.8809 26.5435 24.8742 26.5922 24.8675C26.694 24.8518 26.798 24.8339 26.8953 24.8115C26.9418 24.8025 26.9882 24.7913 27.0369 24.7801C27.0944 24.7689 27.1475 24.7554 27.1984 24.7397C27.298 24.7151 27.3931 24.6882 27.4838 24.6568C27.5192 24.6456 27.5568 24.6344 27.5922 24.6209C27.6962 24.5851 27.8002 24.5492 27.9131 24.5044C27.9595 24.4865 28.006 24.4663 28.0525 24.4461C28.152 24.4035 28.2405 24.3632 28.3157 24.3251L28.3401 24.3139L28.4264 24.2713L28.433 24.2691L28.4396 24.2668C28.5348 24.2175 28.61 24.1772 28.6786 24.1368C28.7251 24.1099 28.7693 24.0853 28.8113 24.0584C28.9021 24.0046 28.9751 23.9575 29.0414 23.9127C30.2915 23.0789 31.1898 21.835 31.6013 20.4028C31.6832 20.4543 31.765 20.5059 31.8469 20.5597C32.1921 20.7883 32.5284 21.0483 32.8403 21.3307C32.993 21.4696 33.1235 21.5952 33.2408 21.7162C33.5594 22.0412 33.8559 22.3953 34.1214 22.7696C34.2541 22.9556 34.378 23.1461 34.4886 23.3344L34.5351 23.4106C34.5639 23.4577 34.5926 23.5115 34.628 23.5742C34.9046 24.0718 35.1325 24.6008 35.3073 25.1477L35.325 25.2037L35.3449 25.2642C35.3537 25.2911 35.3604 25.3158 35.367 25.3404V25.3426V25.3449C35.3891 25.4233 35.4113 25.5018 35.4356 25.5892C35.4644 25.7035 35.4931 25.8156 35.5175 25.9299C34.1634 26.8107 32.6036 27.2747 30.9774 27.2747C30.1278 27.2747 29.2937 27.1492 28.4927 26.9004L28.1874 26.7973C28.1697 26.7905 28.152 26.7861 28.1343 26.7793L28.1277 26.7749L28.0812 26.7592C28.0104 26.7345 27.9374 26.7054 27.8511 26.6718C27.7493 26.6314 27.6453 26.5866 27.5192 26.5305C27.152 26.3624 26.7957 26.1697 26.4617 25.9523C25.9948 25.6519 25.5567 25.3045 25.1585 24.9213C25.1718 24.9213 25.185 24.9213 25.1961 24.9235ZM22.8265 18.6097C22.3198 18.863 21.8353 19.1588 21.3729 19.4995L20.979 19.7886L21.0565 20.2773C21.1184 20.6717 21.2047 21.0595 21.3109 21.4405L20.2865 20.8017L20.8972 21.7767C20.5454 21.6781 20.1892 21.5974 19.8263 21.5369L19.3462 21.4562L19.063 21.8596C18.7311 22.3326 18.4413 22.8301 18.1935 23.3479C17.9457 22.8301 17.6559 22.3348 17.3218 21.8619L17.0386 21.4584L16.5607 21.5391C16.1801 21.6019 15.8062 21.6893 15.4389 21.7946L16.0496 20.7793L15.0871 21.4002C15.1867 21.0348 15.2686 20.6605 15.3283 20.2817L15.4057 19.7931L15.0119 19.504C14.5495 19.1633 14.0627 18.8675 13.5561 18.6142C14.0605 18.3609 14.5473 18.0651 15.0097 17.7244L15.4035 17.4353L15.3261 16.9466C15.2663 16.5701 15.1845 16.2003 15.0849 15.835L16.1137 16.4984L15.461 15.4427C15.8195 15.5458 16.1845 15.6265 16.554 15.6893L17.0386 15.77L17.3218 15.3665C17.6536 14.8936 17.9435 14.3983 18.1913 13.8783C18.4015 14.3176 18.6426 14.7412 18.9148 15.1491V15.8417L19.8241 15.6893C20.1848 15.6288 20.5388 15.5481 20.8861 15.4494L20.26 16.4491L21.3065 15.7924C21.2025 16.1712 21.1184 16.5544 21.0565 16.9466L20.979 17.4375L21.3729 17.7266C21.8353 18.0628 22.322 18.3587 22.8265 18.6097ZM26.5944 11.1752C26.6851 11.1192 26.7736 11.0654 26.8599 11.0161C26.9993 10.9377 27.1453 10.8615 27.2891 10.7897C27.3621 10.7539 27.4352 10.7203 27.506 10.6866C27.6431 10.6239 27.7869 10.5634 27.9507 10.4984L28.0038 10.4782C28.0635 10.4558 28.121 10.4334 28.183 10.4132C29.0768 10.0949 30.0149 9.93355 30.9752 9.93355C32.5947 9.93355 34.1501 10.393 35.5042 11.2694C35.1546 12.8742 34.3714 14.3288 33.2231 15.5032C32.7297 16.0075 32.1854 16.4446 31.5947 16.8077C31.5549 16.6687 31.5084 16.532 31.4575 16.393C31.442 16.3505 31.4243 16.3056 31.4088 16.263L31.3956 16.2317L31.3933 16.2272L31.3911 16.2227C31.3602 16.1443 31.327 16.0681 31.2938 15.9918C31.254 15.9022 31.2186 15.826 31.1832 15.7565C31.1168 15.6175 31.0393 15.4786 30.9575 15.3419C30.9132 15.2657 30.869 15.1939 30.8292 15.1334C30.6942 14.9227 30.5482 14.7255 30.3977 14.5417C30.3092 14.4341 30.2097 14.3198 30.1034 14.2055C30.0725 14.1719 30.0371 14.136 29.9972 14.0957C28.86 12.9526 27.3666 12.3094 25.7758 12.278C26.0745 11.9306 26.3466 11.5607 26.5944 11.1752ZM21.2246 3.23423C22.3707 2.06426 23.7889 1.26411 25.3532 0.905495C26.2161 2.29287 26.6696 3.8887 26.6696 5.54728C26.6696 6.52001 26.5125 7.47706 26.2028 8.38703L26.1829 8.44755C25.9948 8.98995 25.7514 9.51442 25.4594 10.012C25.0833 10.2653 24.7226 10.5454 24.3819 10.8502C24.3708 10.3325 24.2978 9.81924 24.1651 9.31942C24.1496 9.26115 24.1319 9.19391 24.1098 9.12443C24.1075 9.11546 24.1053 9.10874 24.1031 9.09977L24.1009 9.09529L24.0965 9.08184C24.0699 8.99443 24.039 8.90478 24.008 8.81737V8.81513L23.9925 8.77478C23.9859 8.75461 23.977 8.73444 23.9704 8.71202L23.9571 8.67616C23.9394 8.62685 23.9195 8.58203 23.9018 8.5372C23.8863 8.49686 23.8686 8.45427 23.8487 8.41169C23.842 8.39376 23.8354 8.38031 23.8288 8.36686C23.8221 8.34893 23.8133 8.33324 23.8066 8.31531L23.7978 8.2929L23.7956 8.28841L23.7934 8.28393C23.7712 8.23462 23.7469 8.18531 23.7226 8.13601L23.7204 8.13152L23.7181 8.12704C23.7115 8.11359 23.7049 8.0979 23.696 8.08445C23.6849 8.06204 23.6739 8.03963 23.6606 8.01497C23.6518 7.99704 23.6429 7.97911 23.6319 7.96118V7.9567L23.5256 7.77067C23.519 7.75722 23.5102 7.74602 23.5035 7.73257V7.63171L23.3287 7.4524C23.3265 7.45016 23.3265 7.44792 23.3243 7.44568L23.3022 7.4143L23.2978 7.40757L23.2933 7.40085C23.2579 7.3493 23.2203 7.29327 23.1761 7.23275C23.1429 7.18568 23.1119 7.1431 23.0876 7.11396C23.0323 7.04 22.9703 6.96379 22.8973 6.87414C22.8619 6.82931 22.8287 6.79121 22.7955 6.75535C22.7579 6.71052 22.7225 6.67242 22.6915 6.6388C22.6694 6.61415 22.6451 6.58725 22.6207 6.5626C22.6119 6.55139 22.6008 6.54242 22.5898 6.53122L22.5875 6.52898C22.4902 6.42588 22.3906 6.33174 22.2911 6.24209C22.2512 6.20623 22.2158 6.17261 22.1804 6.14347L22.176 6.13899L22.145 6.11433C22.0986 6.07623 22.0543 6.03813 22.0101 6.00226C21.8729 5.89244 21.7313 5.7871 21.5831 5.68848C21.4193 5.57641 21.249 5.47331 21.0742 5.38142C21.0189 5.35228 20.9636 5.32314 20.906 5.29401L20.9016 5.29177L20.8972 5.28952C20.8087 5.2447 20.7335 5.21108 20.6627 5.1797C20.625 5.16177 20.5808 5.14384 20.5321 5.12367C20.4945 5.10798 20.4569 5.09229 20.4171 5.0766L20.4104 5.07436L20.4038 5.07212L20.3817 5.06315C20.3485 5.0497 20.3175 5.0385 20.2843 5.02729C20.2423 5.0116 20.2025 4.99815 20.1604 4.98246C20.1206 4.96901 20.0786 4.95557 20.0387 4.94212C20.0055 4.93091 19.9724 4.91971 19.937 4.91074C20.2976 4.30558 20.7268 3.74301 21.2246 3.23423Z" fill="black"/>
<path d="M10.7311 24.1529C8.46326 24.1529 6.52288 22.7274 5.71753 20.708C5.68655 20.6296 5.65779 20.5511 5.63124 20.4727C5.61575 20.4323 5.60469 20.3942 5.59142 20.3516C5.5538 20.2306 5.5184 20.1096 5.48743 19.9863C5.4653 19.9034 5.4476 19.8205 5.43212 19.7375C5.39893 19.5672 5.37238 19.3968 5.35468 19.2243H5.35247C5.27503 19.2601 5.19538 19.3005 5.11794 19.3386H5.11573C4.38117 19.7039 3.68202 20.1746 3.0426 20.7506C2.96959 20.8178 2.89658 20.8851 2.82356 20.9523C2.82135 20.9546 2.82135 20.9546 2.82135 20.9546C2.74834 21.024 2.67754 21.0935 2.60674 21.1652V21.1675C1.17967 22.6288 0.314574 24.4421 0.0136719 26.336C1.53367 27.4499 3.3966 28.1066 5.40999 28.1066C6.47863 28.1066 7.50524 27.9206 8.46105 27.5822C8.87921 27.432 9.2841 27.2549 9.6735 27.0465C9.90582 26.9232 10.1337 26.7887 10.355 26.6453C11.5276 25.89 12.5232 24.8724 13.26 23.671C13.26 23.671 13.26 23.671 13.26 23.6688C13.3087 23.5926 13.3529 23.5164 13.3972 23.4379C13.1184 23.5993 12.8219 23.7383 12.5122 23.8481C11.9546 24.0453 11.3572 24.1529 10.7311 24.1529ZM9.93458 25.9639C9.72882 26.0984 9.51863 26.2194 9.31286 26.3293C8.95886 26.5175 8.58495 26.6834 8.20439 26.8179C7.30833 27.1361 6.36801 27.2975 5.40999 27.2975C3.79043 27.2975 2.23503 26.8358 0.880977 25.9594C1.23055 24.3569 2.01157 22.9023 3.16208 21.7256C3.22624 21.6606 3.29262 21.5933 3.35678 21.5328L3.36563 21.5239C3.42758 21.4633 3.49395 21.4051 3.55812 21.3468C3.94309 21.0016 4.35462 20.6923 4.79049 20.4234C4.80819 20.4816 4.82589 20.5399 4.84359 20.5959V20.6004L4.8458 20.6049L4.85244 20.6251C4.86571 20.6654 4.87677 20.7035 4.89226 20.7416C4.92324 20.8335 4.95864 20.9254 4.99183 21.0084C5.94763 23.4043 8.19997 24.9508 10.7311 24.9508C10.8992 24.9508 11.0674 24.9441 11.2355 24.9307C10.8351 25.3184 10.3992 25.6658 9.93458 25.9639Z" fill="black"/>
</svg>
